<svg width="297" height="35" viewBox="0 0 297 35" fill="none" xmlns="http://www.w3.org/2000/svg">
<path d="M0.0425006 14.8C0.0425006 12.6027 0.533167 10.64 1.5145 8.912C2.51717 7.16267 3.87183 5.808 5.5785 4.848C7.3065 3.86667 9.23717 3.376 11.3705 3.376C13.8665 3.376 16.0532 4.016 17.9305 5.296C19.8078 6.576 21.1198 8.34667 21.8665 10.608H16.7145C16.2025 9.54133 15.4772 8.74133 14.5385 8.208C13.6212 7.67467 12.5545 7.408 11.3385 7.408C10.0372 7.408 8.8745 7.71733 7.8505 8.336C6.84783 8.93333 6.0585 9.78667 5.4825 10.896C4.92783 12.0053 4.6505 13.3067 4.6505 14.8C4.6505 16.272 4.92783 17.5733 5.4825 18.704C6.0585 19.8133 6.84783 20.6773 7.8505 21.296C8.8745 21.8933 10.0372 22.192 11.3385 22.192C12.5545 22.192 13.6212 21.9253 14.5385 21.392C15.4772 20.8373 16.2025 20.0267 16.7145 18.96H21.8665C21.1198 21.2427 19.8078 23.024 17.9305 24.304C16.0745 25.5627 13.8878 26.192 11.3705 26.192C9.23717 26.192 7.3065 25.712 5.5785 24.752C3.87183 23.7707 2.51717 22.416 1.5145 20.688C0.533167 18.96 0.0425006 16.9973 0.0425006 14.8ZM39.005 26.288C37.2983 26.288 35.7623 25.9147 34.397 25.168C33.0317 24.4 31.9543 23.3227 31.165 21.936C30.397 20.5493 30.013 18.9493 30.013 17.136C30.013 15.3227 30.4077 13.7227 31.197 12.336C32.0077 10.9493 33.1063 9.88267 34.493 9.136C35.8797 8.368 37.4263 7.984 39.133 7.984C40.8397 7.984 42.3863 8.368 43.773 9.136C45.1597 9.88267 46.2477 10.9493 47.037 12.336C47.8477 13.7227 48.253 15.3227 48.253 17.136C48.253 18.9493 47.837 20.5493 47.005 21.936C46.1943 23.3227 45.085 24.4 43.677 25.168C42.2903 25.9147 40.733 26.288 39.005 26.288ZM39.005 22.384C39.8157 22.384 40.573 22.192 41.277 21.808C42.0023 21.4027 42.5783 20.8053 43.005 20.016C43.4317 19.2267 43.645 18.2667 43.645 17.136C43.645 15.4507 43.197 14.16 42.301 13.264C41.4263 12.3467 40.349 11.888 39.069 11.888C37.789 11.888 36.7117 12.3467 35.837 13.264C34.9837 14.16 34.557 15.4507 34.557 17.136C34.557 18.8213 34.973 20.1227 35.805 21.04C36.6583 21.936 37.725 22.384 39.005 22.384ZM55.8273 17.072C55.8273 15.28 56.1793 13.6907 56.8833 12.304C57.6086 10.9173 58.5899 9.85067 59.8273 9.104C61.0646 8.35733 62.4406 7.984 63.9553 7.984C65.1073 7.984 66.2059 8.24 67.2513 8.752C68.2966 9.24267 69.1286 9.904 69.7473 10.736V2.32H74.2913V26H69.7473V23.376C69.1926 24.2507 68.4139 24.9547 67.4113 25.488C66.4086 26.0213 65.2459 26.288 63.9233 26.288C62.4299 26.288 61.0646 25.904 59.8273 25.136C58.5899 24.368 57.6086 23.2907 56.8833 21.904C56.1793 20.496 55.8273 18.8853 55.8273 17.072ZM69.7793 17.136C69.7793 16.048 69.5659 15.12 69.1393 14.352C68.7126 13.5627 68.1366 12.9653 67.4113 12.56C66.6859 12.1333 65.9073 11.92 65.0753 11.92C64.2433 11.92 63.4753 12.1227 62.7713 12.528C62.0673 12.9333 61.4913 13.5307 61.0433 14.32C60.6166 15.088 60.4033 16.0053 60.4033 17.072C60.4033 18.1387 60.6166 19.0773 61.0433 19.888C61.4913 20.6773 62.0673 21.2853 62.7713 21.712C63.4966 22.1387 64.2646 22.352 65.0753 22.352C65.9073 22.352 66.6859 22.1493 67.4113 21.744C68.1366 21.3173 68.7126 20.72 69.1393 19.952C69.5659 19.1627 69.7793 18.224 69.7793 17.136ZM86.3787 6.16C85.5894 6.16 84.9281 5.91467 84.3947 5.424C83.8827 4.912 83.6267 4.28267 83.6267 3.536C83.6267 2.78933 83.8827 2.17067 84.3947 1.68C84.9281 1.168 85.5894 0.911999 86.3787 0.911999C87.1681 0.911999 87.8187 1.168 88.3307 1.68C88.8641 2.17067 89.1307 2.78933 89.1307 3.536C89.1307 4.28267 88.8641 4.912 88.3307 5.424C87.8187 5.91467 87.1681 6.16 86.3787 6.16ZM88.5867 8.272V26H84.1067V8.272H88.5867ZM108.277 8.016C110.389 8.016 112.096 8.688 113.397 10.032C114.698 11.3547 115.349 13.2107 115.349 15.6V26H110.869V16.208C110.869 14.8 110.517 13.7227 109.813 12.976C109.109 12.208 108.149 11.824 106.933 11.824C105.696 11.824 104.714 12.208 103.989 12.976C103.285 13.7227 102.933 14.8 102.933 16.208V26H98.453V8.272H102.933V10.48C103.53 9.712 104.288 9.11467 105.205 8.688C106.144 8.24 107.168 8.016 108.277 8.016ZM131.993 7.984C133.316 7.984 134.479 8.25067 135.481 8.784C136.484 9.296 137.273 9.968 137.849 10.8V8.272H142.361V26.128C142.361 27.7707 142.031 29.232 141.369 30.512C140.708 31.8133 139.716 32.8373 138.393 33.584C137.071 34.352 135.471 34.736 133.593 34.736C131.076 34.736 129.007 34.1493 127.385 32.976C125.785 31.8027 124.879 30.2027 124.665 28.176H129.113C129.348 28.9867 129.849 29.6267 130.617 30.096C131.407 30.5867 132.356 30.832 133.465 30.832C134.767 30.832 135.823 30.4373 136.633 29.648C137.444 28.88 137.849 27.7067 137.849 26.128V23.376C137.273 24.208 136.473 24.9013 135.449 25.456C134.447 26.0107 133.295 26.288 131.993 26.288C130.5 26.288 129.135 25.904 127.897 25.136C126.66 24.368 125.679 23.2907 124.953 21.904C124.249 20.496 123.897 18.8853 123.897 17.072C123.897 15.28 124.249 13.6907 124.953 12.304C125.679 10.9173 126.649 9.85067 127.865 9.104C129.103 8.35733 130.479 7.984 131.993 7.984ZM137.849 17.136C137.849 16.048 137.636 15.12 137.209 14.352C136.783 13.5627 136.207 12.9653 135.481 12.56C134.756 12.1333 133.977 11.92 133.145 11.92C132.313 11.92 131.545 12.1227 130.841 12.528C130.137 12.9333 129.561 13.5307 129.113 14.32C128.687 15.088 128.473 16.0053 128.473 17.072C128.473 18.1387 128.687 19.0773 129.113 19.888C129.561 20.6773 130.137 21.2853 130.841 21.712C131.567 22.1387 132.335 22.352 133.145 22.352C133.977 22.352 134.756 22.1493 135.481 21.744C136.207 21.3173 136.783 20.72 137.209 19.952C137.636 19.1627 137.849 18.224 137.849 17.136Z" fill="#E38417"/>
<path d="M178.938 21.744H170.042L168.57 26H163.866L171.898 3.632H177.114L185.146 26H180.41L178.938 21.744ZM177.722 18.16L174.49 8.816L171.258 18.16H177.722ZM192.436 17.072C192.436 15.28 192.788 13.6907 193.492 12.304C194.217 10.9173 195.199 9.85067 196.436 9.104C197.673 8.35733 199.049 7.984 200.564 7.984C201.716 7.984 202.815 8.24 203.86 8.752C204.905 9.24267 205.737 9.904 206.356 10.736V2.32H210.9V26H206.356V23.376C205.801 24.2507 205.023 24.9547 204.02 25.488C203.017 26.0213 201.855 26.288 200.532 26.288C199.039 26.288 197.673 25.904 196.436 25.136C195.199 24.368 194.217 23.2907 193.492 21.904C192.788 20.496 192.436 18.8853 192.436 17.072ZM206.388 17.136C206.388 16.048 206.175 15.12 205.748 14.352C205.321 13.5627 204.745 12.9653 204.02 12.56C203.295 12.1333 202.516 11.92 201.684 11.92C200.852 11.92 200.084 12.1227 199.38 12.528C198.676 12.9333 198.1 13.5307 197.652 14.32C197.225 15.088 197.012 16.0053 197.012 17.072C197.012 18.1387 197.225 19.0773 197.652 19.888C198.1 20.6773 198.676 21.2853 199.38 21.712C200.105 22.1387 200.873 22.352 201.684 22.352C202.516 22.352 203.295 22.1493 204.02 21.744C204.745 21.3173 205.321 20.72 205.748 19.952C206.175 19.1627 206.388 18.224 206.388 17.136ZM219.564 17.072C219.564 15.28 219.916 13.6907 220.62 12.304C221.345 10.9173 222.326 9.85067 223.564 9.104C224.801 8.35733 226.177 7.984 227.692 7.984C228.844 7.984 229.942 8.24 230.988 8.752C232.033 9.24267 232.865 9.904 233.484 10.736V2.32H238.028V26H233.484V23.376C232.929 24.2507 232.15 24.9547 231.148 25.488C230.145 26.0213 228.982 26.288 227.66 26.288C226.166 26.288 224.801 25.904 223.564 25.136C222.326 24.368 221.345 23.2907 220.62 21.904C219.916 20.496 219.564 18.8853 219.564 17.072ZM233.516 17.136C233.516 16.048 233.302 15.12 232.876 14.352C232.449 13.5627 231.873 12.9653 231.148 12.56C230.422 12.1333 229.644 11.92 228.812 11.92C227.98 11.92 227.212 12.1227 226.508 12.528C225.804 12.9333 225.228 13.5307 224.78 14.32C224.353 15.088 224.14 16.0053 224.14 17.072C224.14 18.1387 224.353 19.0773 224.78 19.888C225.228 20.6773 225.804 21.2853 226.508 21.712C227.233 22.1387 228.001 22.352 228.812 22.352C229.644 22.352 230.422 22.1493 231.148 21.744C231.873 21.3173 232.449 20.72 232.876 19.952C233.302 19.1627 233.516 18.224 233.516 17.136ZM250.115 6.16C249.326 6.16 248.664 5.91467 248.131 5.424C247.619 4.912 247.363 4.28267 247.363 3.536C247.363 2.78933 247.619 2.17067 248.131 1.68C248.664 1.168 249.326 0.911999 250.115 0.911999C250.904 0.911999 251.555 1.168 252.067 1.68C252.6 2.17067 252.867 2.78933 252.867 3.536C252.867 4.28267 252.6 4.912 252.067 5.424C251.555 5.91467 250.904 6.16 250.115 6.16ZM252.323 8.272V26H247.843V8.272H252.323ZM261.037 17.136C261.037 15.3013 261.411 13.7013 262.157 12.336C262.904 10.9493 263.939 9.88267 265.261 9.136C266.584 8.368 268.099 7.984 269.805 7.984C272.003 7.984 273.816 8.53867 275.245 9.648C276.696 10.736 277.667 12.272 278.157 14.256H273.325C273.069 13.488 272.632 12.8907 272.013 12.464C271.416 12.016 270.669 11.792 269.773 11.792C268.493 11.792 267.48 12.2613 266.733 13.2C265.987 14.1173 265.613 15.4293 265.613 17.136C265.613 18.8213 265.987 20.1333 266.733 21.072C267.48 21.9893 268.493 22.448 269.773 22.448C271.587 22.448 272.771 21.6373 273.325 20.016H278.157C277.667 21.936 276.696 23.4613 275.245 24.592C273.795 25.7227 271.981 26.288 269.805 26.288C268.099 26.288 266.584 25.9147 265.261 25.168C263.939 24.4 262.904 23.3333 262.157 21.968C261.411 20.5813 261.037 18.9707 261.037 17.136ZM292.095 11.952V20.528C292.095 21.1253 292.234 21.5627 292.511 21.84C292.81 22.096 293.301 22.224 293.983 22.224H296.063V26H293.247C289.471 26 287.583 24.1653 287.583 20.496V11.952H285.471V8.272H287.583V3.888H292.095V8.272H296.063V11.952H292.095Z" fill="#386FE7"/>
</svg>
